<svg width="14" height="25" viewBox="0 0 14 25" fill="none" xmlns="http://www.w3.org/2000/svg">
<path d="M0.68 21V8.54H4.1C4.84667 8.54 5.47333 8.60667 5.98 8.74C6.48667 8.87333 6.92 9.07333 7.28 9.34C7.64 9.59333 7.96 9.90667 8.24 10.28C8.52 10.6533 8.76 11.08 8.96 11.56C9.17333 12.0267 9.33333 12.5333 9.44 13.08C9.56 13.6267 9.62 14.22 9.62 14.86C9.62 15.8067 9.50667 16.66 9.28 17.42C9.05333 18.1667 8.70667 18.8067 8.24 19.34C7.77333 19.8733 7.17333 20.2867 6.44 20.58C5.72 20.86 4.86 21 3.86 21H0.68ZM3.46 18.78H3.82C4.60667 18.78 5.22 18.6067 5.66 18.26C6.11333 17.9133 6.42667 17.4467 6.6 16.86C6.78667 16.26 6.88 15.5933 6.88 14.86C6.88 14.0467 6.8 13.3333 6.64 12.72C6.49333 12.1067 6.21333 11.6267 5.8 11.28C5.38667 10.92 4.79333 10.74 4.02 10.74H3.46V18.78Z" fill="#7879E0" fill-opacity="0.2"/>
<path d="M4.68 17V4.54H8.1C8.84667 4.54 9.47333 4.60667 9.98 4.74C10.4867 4.87333 10.92 5.07333 11.28 5.34C11.64 5.59333 11.96 5.90667 12.24 6.28C12.52 6.65333 12.76 7.08 12.96 7.56C13.1733 8.02667 13.3333 8.53333 13.44 9.08C13.56 9.62667 13.62 10.22 13.62 10.86C13.62 11.8067 13.5067 12.66 13.28 13.42C13.0533 14.1667 12.7067 14.8067 12.24 15.34C11.7733 15.8733 11.1733 16.2867 10.44 16.58C9.72 16.86 8.86 17 7.86 17H4.68ZM7.46 14.78H7.82C8.60667 14.78 9.22 14.6067 9.66 14.26C10.1133 13.9133 10.4267 13.4467 10.6 12.86C10.7867 12.26 10.88 11.5933 10.88 10.86C10.88 10.0467 10.8 9.33333 10.64 8.72C10.4933 8.10667 10.2133 7.62667 9.8 7.28C9.38667 6.92 8.79333 6.74 8.02 6.74H7.46V14.78Z" fill="#7879E0" fill-opacity="0.2"/>
<path d="M2.68 19V6.54H6.1C6.84667 6.54 7.47333 6.60667 7.98 6.74C8.48667 6.87333 8.92 7.07333 9.28 7.34C9.64 7.59333 9.96 7.90667 10.24 8.28C10.52 8.65333 10.76 9.08 10.96 9.56C11.1733 10.0267 11.3333 10.5333 11.44 11.08C11.56 11.6267 11.62 12.22 11.62 12.86C11.62 13.8067 11.5067 14.66 11.28 15.42C11.0533 16.1667 10.7067 16.8067 10.24 17.34C9.77333 17.8733 9.17333 18.2867 8.44 18.58C7.72 18.86 6.86 19 5.86 19H2.68ZM5.46 16.78H5.82C6.60667 16.78 7.22 16.6067 7.66 16.26C8.11333 15.9133 8.42667 15.4467 8.6 14.86C8.78667 14.26 8.88 13.5933 8.88 12.86C8.88 12.0467 8.8 11.3333 8.64 10.72C8.49333 10.1067 8.21333 9.62667 7.8 9.28C7.38667 8.92 6.79333 8.74 6.02 8.74H5.46V16.78Z" fill="#7879E0"/>
</svg>
