<svg width="80" height="25" viewBox="0 0 80 25" fill="none" xmlns="http://www.w3.org/2000/svg">
<path d="M0.680176 24V11.54H4.10018C4.84684 11.54 5.47351 11.6067 5.98018 11.74C6.48684 11.8733 6.92018 12.0733 7.28018 12.34C7.64018 12.5933 7.96018 12.9067 8.24018 13.28C8.52018 13.6533 8.76018 14.08 8.96018 14.56C9.17351 15.0267 9.33351 15.5333 9.44018 16.08C9.56018 16.6267 9.62018 17.22 9.62018 17.86C9.62018 18.8067 9.50684 19.66 9.28018 20.42C9.05351 21.1667 8.70684 21.8067 8.24018 22.34C7.77351 22.8733 7.17351 23.2867 6.44018 23.58C5.72018 23.86 4.86018 24 3.86018 24H0.680176ZM3.46018 21.78H3.82018C4.60684 21.78 5.22018 21.6067 5.66018 21.26C6.11351 20.9133 6.42684 20.4467 6.60018 19.86C6.78684 19.26 6.88018 18.5933 6.88018 17.86C6.88018 17.0467 6.80018 16.3333 6.64018 15.72C6.49351 15.1067 6.21351 14.6267 5.80018 14.28C5.38684 13.92 4.79351 13.74 4.02018 13.74H3.46018V21.78Z" fill="white" fill-opacity="0.2"/>
<path d="M17.4602 21.58H12.3602L12.7002 19.62H17.0602L17.4602 21.58ZM15.0202 16.38L13.0002 24H10.2002L14.1602 11.54H15.8602L19.8202 24H16.9802L15.0202 16.38Z" fill="white" fill-opacity="0.2"/>
<path d="M20.7402 24V11.54H24.8802C25.9202 11.54 26.7735 11.6933 27.4402 12C28.1202 12.3067 28.6202 12.74 28.9402 13.3C29.2735 13.86 29.4402 14.5133 29.4402 15.26C29.4402 15.7133 29.3468 16.1667 29.1602 16.62C28.9868 17.06 28.7335 17.4667 28.4002 17.84C28.0668 18.2 27.6735 18.4867 27.2202 18.7L29.7802 24H26.8602L24.4802 19.04H23.6202V24H20.7402ZM23.6202 16.74H25.0202C25.4868 16.74 25.8535 16.62 26.1202 16.38C26.4002 16.1267 26.5402 15.7867 26.5402 15.36C26.5402 15.0933 26.4802 14.8533 26.3602 14.64C26.2402 14.4267 26.0668 14.2533 25.8402 14.12C25.6135 13.9867 25.3402 13.92 25.0202 13.92H23.6202V16.74Z" fill="white" fill-opacity="0.2"/>
<path d="M34.7802 24.24C33.9402 24.24 33.1268 24.1267 32.3402 23.9C31.5668 23.66 30.9402 23.2933 30.4602 22.8L31.8202 20.54L31.9202 20.38L32.1202 20.5C32.1468 20.5933 32.1802 20.6933 32.2202 20.8C32.2735 20.8933 32.3868 21.0133 32.5602 21.16C32.8802 21.3733 33.2268 21.5533 33.6002 21.7C33.9735 21.8467 34.3602 21.9267 34.7602 21.94C35.0402 21.94 35.2868 21.92 35.5002 21.88C35.7268 21.84 35.9202 21.7733 36.0802 21.68C36.2402 21.5867 36.3602 21.46 36.4402 21.3C36.5335 21.1267 36.5802 20.92 36.5802 20.68C36.5802 20.56 36.5602 20.44 36.5202 20.32C36.4935 20.1867 36.4402 20.06 36.3602 19.94C36.2802 19.8067 36.1535 19.6733 35.9802 19.54C35.8202 19.4067 35.6135 19.26 35.3602 19.1C35.1068 18.94 34.7868 18.7733 34.4002 18.6C33.5468 18.1867 32.8668 17.7933 32.3602 17.42C31.8668 17.0467 31.5068 16.64 31.2802 16.2C31.0668 15.7467 30.9602 15.2067 30.9602 14.58C30.9602 13.9667 31.1402 13.4133 31.5002 12.92C31.8735 12.4267 32.3735 12.0333 33.0002 11.74C33.6268 11.4467 34.3135 11.3 35.0602 11.3C35.6335 11.3 36.1535 11.36 36.6202 11.48C37.1002 11.6 37.5402 11.78 37.9402 12.02C38.3535 12.26 38.7335 12.5667 39.0802 12.94L37.3802 14.78L37.2602 14.92L37.0802 14.76C37.0668 14.6533 37.0468 14.5533 37.0202 14.46C36.9935 14.3533 36.9068 14.22 36.7602 14.06C36.5468 13.8733 36.3202 13.7533 36.0802 13.7C35.8402 13.6333 35.5602 13.6 35.2402 13.6C35.0135 13.6 34.8068 13.6267 34.6202 13.68C34.4335 13.72 34.2735 13.7867 34.1402 13.88C34.0068 13.96 33.9002 14.0533 33.8202 14.16C33.7535 14.2667 33.7202 14.38 33.7202 14.5C33.7202 14.62 33.7335 14.7333 33.7602 14.84C33.7868 14.9333 33.8402 15.0333 33.9202 15.14C34.0002 15.2467 34.1202 15.36 34.2802 15.48C34.4535 15.6 34.6735 15.74 34.9402 15.9C35.2202 16.0467 35.5668 16.22 35.9802 16.42C36.6202 16.74 37.1602 17.0467 37.6002 17.34C38.0402 17.6333 38.3868 17.94 38.6402 18.26C38.9068 18.5667 39.0935 18.9067 39.2002 19.28C39.3202 19.6533 39.3802 20.08 39.3802 20.56C39.3802 21.1867 39.2202 21.78 38.9002 22.34C38.5802 22.9 38.0802 23.36 37.4002 23.72C36.7202 24.0667 35.8468 24.24 34.7802 24.24Z" fill="white" fill-opacity="0.2"/>
<path d="M43.5802 24V13.88H40.3602V11.54H49.6802V13.88H46.2602V24H43.5802Z" fill="white" fill-opacity="0.2"/>
<path d="M50.9202 24V11.54H59.3402V13.78H53.7002V16.4H58.3202V18.64H53.7002V21.76H59.3002V24H50.9202Z" fill="white" fill-opacity="0.2"/>
<path d="M61.0202 11.54H64.0202V11.76C63.9535 11.84 63.9068 11.9267 63.8802 12.02C63.8668 12.1133 63.8602 12.2733 63.8602 12.5V21.72H69.3802V24H61.0202V11.54Z" fill="white" fill-opacity="0.2"/>
<path d="M71.0202 11.54H74.0202V11.76C73.9535 11.84 73.9068 11.9267 73.8802 12.02C73.8668 12.1133 73.8602 12.2733 73.8602 12.5V21.72H79.3802V24H71.0202V11.54Z" fill="white" fill-opacity="0.2"/>
<path d="M0.680176 13V0.540004H4.10018C4.84684 0.540004 5.47351 0.60667 5.98018 0.740003C6.48684 0.873337 6.92018 1.07334 7.28018 1.34C7.64018 1.59334 7.96018 1.90667 8.24018 2.28C8.52018 2.65334 8.76018 3.08 8.96018 3.56C9.17351 4.02667 9.33351 4.53334 9.44018 5.08C9.56018 5.62667 9.62018 6.22 9.62018 6.86C9.62018 7.80667 9.50684 8.66 9.28018 9.42C9.05351 10.1667 8.70684 10.8067 8.24018 11.34C7.77351 11.8733 7.17351 12.2867 6.44018 12.58C5.72018 12.86 4.86018 13 3.86018 13H0.680176ZM3.46018 10.78H3.82018C4.60684 10.78 5.22018 10.6067 5.66018 10.26C6.11351 9.91334 6.42684 9.44667 6.60018 8.86C6.78684 8.26 6.88018 7.59334 6.88018 6.86C6.88018 6.04667 6.80018 5.33334 6.64018 4.72C6.49351 4.10667 6.21351 3.62667 5.80018 3.28C5.38684 2.92 4.79351 2.74 4.02018 2.74H3.46018V10.78Z" fill="white" fill-opacity="0.2"/>
<path d="M17.4602 10.58H12.3602L12.7002 8.62H17.0602L17.4602 10.58ZM15.0202 5.38L13.0002 13H10.2002L14.1602 0.540004H15.8602L19.8202 13H16.9802L15.0202 5.38Z" fill="white" fill-opacity="0.2"/>
<path d="M20.7402 13V0.540004H24.8802C25.9202 0.540004 26.7735 0.693337 27.4402 1C28.1202 1.30667 28.6202 1.74 28.9402 2.3C29.2735 2.86 29.4402 3.51334 29.4402 4.26C29.4402 4.71334 29.3468 5.16667 29.1602 5.62C28.9868 6.06 28.7335 6.46667 28.4002 6.84C28.0668 7.2 27.6735 7.48667 27.2202 7.7L29.7802 13H26.8602L24.4802 8.04H23.6202V13H20.7402ZM23.6202 5.74H25.0202C25.4868 5.74 25.8535 5.62 26.1202 5.38C26.4002 5.12667 26.5402 4.78667 26.5402 4.36C26.5402 4.09334 26.4802 3.85334 26.3602 3.64C26.2402 3.42667 26.0668 3.25334 25.8402 3.12C25.6135 2.98667 25.3402 2.92 25.0202 2.92H23.6202V5.74Z" fill="white" fill-opacity="0.2"/>
<path d="M34.7802 13.24C33.9402 13.24 33.1268 13.1267 32.3402 12.9C31.5668 12.66 30.9402 12.2933 30.4602 11.8L31.8202 9.54L31.9202 9.38L32.1202 9.5C32.1468 9.59334 32.1802 9.69334 32.2202 9.8C32.2735 9.89334 32.3868 10.0133 32.5602 10.16C32.8802 10.3733 33.2268 10.5533 33.6002 10.7C33.9735 10.8467 34.3602 10.9267 34.7602 10.94C35.0402 10.94 35.2868 10.92 35.5002 10.88C35.7268 10.84 35.9202 10.7733 36.0802 10.68C36.2402 10.5867 36.3602 10.46 36.4402 10.3C36.5335 10.1267 36.5802 9.92 36.5802 9.68C36.5802 9.56 36.5602 9.44 36.5202 9.32C36.4935 9.18667 36.4402 9.06 36.3602 8.94C36.2802 8.80667 36.1535 8.67334 35.9802 8.54C35.8202 8.40667 35.6135 8.26 35.3602 8.1C35.1068 7.94 34.7868 7.77334 34.4002 7.6C33.5468 7.18667 32.8668 6.79334 32.3602 6.42C31.8668 6.04667 31.5068 5.64 31.2802 5.2C31.0668 4.74667 30.9602 4.20667 30.9602 3.58C30.9602 2.96667 31.1402 2.41334 31.5002 1.92C31.8735 1.42667 32.3735 1.03334 33.0002 0.740003C33.6268 0.44667 34.3135 0.300003 35.0602 0.300003C35.6335 0.300003 36.1535 0.360003 36.6202 0.480003C37.1002 0.600003 37.5402 0.780003 37.9402 1.02C38.3535 1.26 38.7335 1.56667 39.0802 1.94L37.3802 3.78L37.2602 3.92L37.0802 3.76C37.0668 3.65334 37.0468 3.55334 37.0202 3.46C36.9935 3.35334 36.9068 3.22 36.7602 3.06C36.5468 2.87334 36.3202 2.75334 36.0802 2.7C35.8402 2.63334 35.5602 2.6 35.2402 2.6C35.0135 2.6 34.8068 2.62667 34.6202 2.68C34.4335 2.72 34.2735 2.78667 34.1402 2.88C34.0068 2.96 33.9002 3.05334 33.8202 3.16C33.7535 3.26667 33.7202 3.38 33.7202 3.5C33.7202 3.62 33.7335 3.73334 33.7602 3.84C33.7868 3.93334 33.8402 4.03334 33.9202 4.14C34.0002 4.24667 34.1202 4.36 34.2802 4.48C34.4535 4.6 34.6735 4.74 34.9402 4.9C35.2202 5.04667 35.5668 5.22 35.9802 5.42C36.6202 5.74 37.1602 6.04667 37.6002 6.34C38.0402 6.63334 38.3868 6.94 38.6402 7.26C38.9068 7.56667 39.0935 7.90667 39.2002 8.28C39.3202 8.65334 39.3802 9.08 39.3802 9.56C39.3802 10.1867 39.2202 10.78 38.9002 11.34C38.5802 11.9 38.0802 12.36 37.4002 12.72C36.7202 13.0667 35.8468 13.24 34.7802 13.24Z" fill="white" fill-opacity="0.2"/>
<path d="M43.5802 13V2.88H40.3602V0.540004H49.6802V2.88H46.2602V13H43.5802Z" fill="white" fill-opacity="0.2"/>
<path d="M50.9202 13V0.540004H59.3402V2.78H53.7002V5.4H58.3202V7.64H53.7002V10.76H59.3002V13H50.9202Z" fill="white" fill-opacity="0.2"/>
<path d="M61.0202 0.540004H64.0202V0.760003C63.9535 0.840004 63.9068 0.92667 63.8802 1.02C63.8668 1.11334 63.8602 1.27334 63.8602 1.5V10.72H69.3802V13H61.0202V0.540004Z" fill="white" fill-opacity="0.2"/>
<path d="M71.0202 0.540004H74.0202V0.760003C73.9535 0.840004 73.9068 0.92667 73.8802 1.02C73.8668 1.11334 73.8602 1.27334 73.8602 1.5V10.72H79.3802V13H71.0202V0.540004Z" fill="white" fill-opacity="0.2"/>
<path d="M0.680176 19V6.54003H4.10018C4.84684 6.54003 5.47351 6.6067 5.98018 6.74003C6.48684 6.87337 6.92018 7.07337 7.28018 7.34003C7.64018 7.59337 7.96018 7.9067 8.24018 8.28003C8.52018 8.65337 8.76018 9.08003 8.96018 9.56003C9.17351 10.0267 9.33351 10.5334 9.44018 11.08C9.56018 11.6267 9.62018 12.22 9.62018 12.86C9.62018 13.8067 9.50684 14.66 9.28018 15.42C9.05351 16.1667 8.70684 16.8067 8.24018 17.34C7.77351 17.8734 7.17351 18.2867 6.44018 18.58C5.72018 18.86 4.86018 19 3.86018 19H0.680176ZM3.46018 16.78H3.82018C4.60684 16.78 5.22018 16.6067 5.66018 16.26C6.11351 15.9134 6.42684 15.4467 6.60018 14.86C6.78684 14.26 6.88018 13.5934 6.88018 12.86C6.88018 12.0467 6.80018 11.3334 6.64018 10.72C6.49351 10.1067 6.21351 9.6267 5.80018 9.28003C5.38684 8.92003 4.79351 8.74003 4.02018 8.74003H3.46018V16.78Z" fill="#D1D1D1"/>
<path d="M17.4602 16.58H12.3602L12.7002 14.62H17.0602L17.4602 16.58ZM15.0202 11.38L13.0002 19H10.2002L14.1602 6.54003H15.8602L19.8202 19H16.9802L15.0202 11.38Z" fill="#D1D1D1"/>
<path d="M20.7402 19V6.54003H24.8802C25.9202 6.54003 26.7735 6.69337 27.4402 7.00003C28.1202 7.3067 28.6202 7.74003 28.9402 8.30003C29.2735 8.86003 29.4402 9.51337 29.4402 10.26C29.4402 10.7134 29.3468 11.1667 29.1602 11.62C28.9868 12.06 28.7335 12.4667 28.4002 12.84C28.0668 13.2 27.6735 13.4867 27.2202 13.7L29.7802 19H26.8602L24.4802 14.04H23.6202V19H20.7402ZM23.6202 11.74H25.0202C25.4868 11.74 25.8535 11.62 26.1202 11.38C26.4002 11.1267 26.5402 10.7867 26.5402 10.36C26.5402 10.0934 26.4802 9.85337 26.3602 9.64003C26.2402 9.4267 26.0668 9.25337 25.8402 9.12003C25.6135 8.9867 25.3402 8.92003 25.0202 8.92003H23.6202V11.74Z" fill="#D1D1D1"/>
<path d="M34.7802 19.24C33.9402 19.24 33.1268 19.1267 32.3402 18.9C31.5668 18.66 30.9402 18.2934 30.4602 17.8L31.8202 15.54L31.9202 15.38L32.1202 15.5C32.1468 15.5934 32.1802 15.6934 32.2202 15.8C32.2735 15.8934 32.3868 16.0134 32.5602 16.16C32.8802 16.3734 33.2268 16.5534 33.6002 16.7C33.9735 16.8467 34.3602 16.9267 34.7602 16.94C35.0402 16.94 35.2868 16.92 35.5002 16.88C35.7268 16.84 35.9202 16.7734 36.0802 16.68C36.2402 16.5867 36.3602 16.46 36.4402 16.3C36.5335 16.1267 36.5802 15.92 36.5802 15.68C36.5802 15.56 36.5602 15.44 36.5202 15.32C36.4935 15.1867 36.4402 15.06 36.3602 14.94C36.2802 14.8067 36.1535 14.6734 35.9802 14.54C35.8202 14.4067 35.6135 14.26 35.3602 14.1C35.1068 13.94 34.7868 13.7734 34.4002 13.6C33.5468 13.1867 32.8668 12.7934 32.3602 12.42C31.8668 12.0467 31.5068 11.64 31.2802 11.2C31.0668 10.7467 30.9602 10.2067 30.9602 9.58003C30.9602 8.9667 31.1402 8.41337 31.5002 7.92003C31.8735 7.4267 32.3735 7.03337 33.0002 6.74003C33.6268 6.4467 34.3135 6.30003 35.0602 6.30003C35.6335 6.30003 36.1535 6.36003 36.6202 6.48003C37.1002 6.60003 37.5402 6.78003 37.9402 7.02003C38.3535 7.26003 38.7335 7.5667 39.0802 7.94003L37.3802 9.78003L37.2602 9.92003L37.0802 9.76003C37.0668 9.65337 37.0468 9.55337 37.0202 9.46003C36.9935 9.35337 36.9068 9.22003 36.7602 9.06003C36.5468 8.87337 36.3202 8.75337 36.0802 8.70003C35.8402 8.63337 35.5602 8.60003 35.2402 8.60003C35.0135 8.60003 34.8068 8.6267 34.6202 8.68003C34.4335 8.72003 34.2735 8.7867 34.1402 8.88003C34.0068 8.96003 33.9002 9.05337 33.8202 9.16003C33.7535 9.2667 33.7202 9.38003 33.7202 9.50003C33.7202 9.62003 33.7335 9.73337 33.7602 9.84003C33.7868 9.93337 33.8402 10.0334 33.9202 10.14C34.0002 10.2467 34.1202 10.36 34.2802 10.48C34.4535 10.6 34.6735 10.74 34.9402 10.9C35.2202 11.0467 35.5668 11.22 35.9802 11.42C36.6202 11.74 37.1602 12.0467 37.6002 12.34C38.0402 12.6334 38.3868 12.94 38.6402 13.26C38.9068 13.5667 39.0935 13.9067 39.2002 14.28C39.3202 14.6534 39.3802 15.08 39.3802 15.56C39.3802 16.1867 39.2202 16.78 38.9002 17.34C38.5802 17.9 38.0802 18.36 37.4002 18.72C36.7202 19.0667 35.8468 19.24 34.7802 19.24Z" fill="#D1D1D1"/>
<path d="M43.5802 19V8.88003H40.3602V6.54003H49.6802V8.88003H46.2602V19H43.5802Z" fill="#D1D1D1"/>
<path d="M50.9202 19V6.54003H59.3402V8.78003H53.7002V11.4H58.3202V13.64H53.7002V16.76H59.3002V19H50.9202Z" fill="#D1D1D1"/>
<path d="M61.0202 6.54003H64.0202V6.76003C63.9535 6.84003 63.9068 6.9267 63.8802 7.02003C63.8668 7.11337 63.8602 7.27337 63.8602 7.50003V16.72H69.3802V19H61.0202V6.54003Z" fill="#D1D1D1"/>
<path d="M71.0202 6.54003H74.0202V6.76003C73.9535 6.84003 73.9068 6.9267 73.8802 7.02003C73.8668 7.11337 73.8602 7.27337 73.8602 7.50003V16.72H79.3802V19H71.0202V6.54003Z" fill="#D1D1D1"/>
</svg>
