<svg width="326" height="98" viewBox="0 0 326 98" fill="none" xmlns="http://www.w3.org/2000/svg">
<path d="M0 97.0175V46.0117H14.1667C17.2596 46.0117 19.8555 46.2846 21.9543 46.8304C24.053 47.3762 25.848 48.1949 27.3393 49.2866C28.8305 50.3236 30.156 51.6062 31.3159 53.1345C32.4757 54.6628 33.4699 56.4094 34.2984 58.3743C35.182 60.2846 35.8448 62.3587 36.2867 64.5965C36.7837 66.8343 37.0323 69.2632 37.0323 71.883C37.0323 75.7583 36.5628 79.2515 35.6239 82.3626C34.685 85.4191 33.249 88.039 31.3159 90.2222C29.3828 92.4055 26.8974 94.0975 23.8597 95.2982C20.8773 96.4445 17.3149 97.0175 13.1726 97.0175H0ZM11.5156 87.9298H13.0069C16.2655 87.9298 18.8061 87.2203 20.6287 85.8012C22.5066 84.3821 23.8045 82.4717 24.5225 80.0702C25.2957 77.614 25.6823 74.885 25.6823 71.883C25.6823 68.5536 25.351 65.6335 24.6882 63.1228C24.0806 60.6121 22.9208 58.6472 21.2086 57.2281C19.4965 55.7544 17.0387 55.0175 13.8353 55.0175H11.5156V87.9298Z" fill="white" fill-opacity="0.2"/>
<path d="M69.508 87.1111H48.3822L49.7906 79.0877H67.8511L69.508 87.1111ZM59.4008 65.8246L51.0333 97.0175H39.4348L55.8384 46.0117H62.8803L79.2839 97.0175H67.5197L59.4008 65.8246Z" fill="white" fill-opacity="0.2"/>
<path d="M83.0948 97.0175V46.0117H100.244C104.552 46.0117 108.087 46.6394 110.848 47.8947C113.665 49.1501 115.736 50.924 117.062 53.2164C118.443 55.5088 119.133 58.1832 119.133 61.2398C119.133 63.0955 118.746 64.9513 117.973 66.807C117.255 68.6082 116.206 70.2729 114.825 71.8012C113.444 73.2749 111.815 74.4483 109.937 75.3216L120.541 97.0175H108.446L98.587 76.7135H95.0247V97.0175H83.0948ZM95.0247 67.2982H100.824C102.757 67.2982 104.276 66.807 105.38 65.8246C106.54 64.7875 107.12 63.3957 107.12 61.6491C107.12 60.5575 106.872 59.5751 106.375 58.7018C105.878 57.8285 105.16 57.1189 104.221 56.5731C103.282 56.0273 102.149 55.7544 100.824 55.7544H95.0247V67.2982Z" fill="white" fill-opacity="0.2"/>
<path d="M141.253 98C137.773 98 134.404 97.5361 131.146 96.6082C127.942 95.6257 125.346 94.1248 123.358 92.1053L128.992 82.8538L129.406 82.1988L130.234 82.6901C130.345 83.0721 130.483 83.4815 130.649 83.9181C130.869 84.3002 131.339 84.7914 132.057 85.3918C133.382 86.2651 134.818 87.002 136.365 87.6023C137.911 88.2027 139.513 88.5302 141.17 88.5848C142.33 88.5848 143.352 88.5029 144.235 88.3392C145.174 88.1754 145.975 87.9025 146.638 87.5205C147.301 87.1384 147.798 86.6199 148.129 85.9649C148.516 85.2554 148.709 84.4094 148.709 83.4269C148.709 82.9357 148.626 82.4445 148.46 81.9532C148.35 81.4074 148.129 80.8889 147.798 80.3977C147.466 79.8519 146.942 79.3061 146.224 78.7602C145.561 78.2144 144.705 77.614 143.655 76.9591C142.606 76.3041 141.28 75.6218 139.679 74.9123C136.144 73.2203 133.327 71.6101 131.228 70.0819C129.185 68.5536 127.694 66.8889 126.755 65.0877C125.871 63.232 125.429 61.0214 125.429 58.4561C125.429 55.9454 126.175 53.6803 127.666 51.6608C129.213 49.6413 131.284 48.0312 133.88 46.8304C136.475 45.6296 139.32 45.0292 142.413 45.0292C144.788 45.0292 146.942 45.2749 148.875 45.7661C150.863 46.2573 152.686 46.9942 154.343 47.9766C156.055 48.9591 157.629 50.2144 159.065 51.7427L152.023 59.2749L151.526 59.848L150.78 59.193C150.725 58.7563 150.642 58.347 150.532 57.9649C150.421 57.5283 150.062 56.9825 149.455 56.3275C148.571 55.5634 147.632 55.0721 146.638 54.8538C145.644 54.5809 144.484 54.4444 143.158 54.4444C142.219 54.4444 141.363 54.5536 140.59 54.7719C139.817 54.9357 139.154 55.2086 138.602 55.5906C138.049 55.9181 137.608 56.3002 137.276 56.7368C137 57.1735 136.862 57.6374 136.862 58.1287C136.862 58.6199 136.917 59.0838 137.028 59.5205C137.138 59.9025 137.359 60.3119 137.69 60.7485C138.022 61.1852 138.519 61.6491 139.182 62.1404C139.9 62.6316 140.811 63.2047 141.916 63.8597C143.075 64.46 144.511 65.1696 146.224 65.9883C148.875 67.2982 151.112 68.5536 152.934 69.7544C154.757 70.9552 156.193 72.2105 157.242 73.5205C158.347 74.7758 159.12 76.1676 159.562 77.6959C160.059 79.2242 160.307 80.9708 160.307 82.9357C160.307 85.501 159.645 87.9298 158.319 90.2222C156.994 92.5146 154.923 94.3977 152.106 95.8713C149.289 97.2905 145.671 98 141.253 98Z" fill="white" fill-opacity="0.2"/>
<path d="M177.705 97.0175V55.5906H164.367V46.0117H202.973V55.5906H188.807V97.0175H177.705Z" fill="white" fill-opacity="0.2"/>
<path d="M208.11 97.0175V46.0117H242.988V55.1813H219.625V65.9064H238.763V75.076H219.625V87.848H242.822V97.0175H208.11Z" fill="white" fill-opacity="0.2"/>
<path d="M249.947 46.0117H262.374V46.9123C262.098 47.2398 261.905 47.5945 261.794 47.9766C261.739 48.3587 261.711 49.0136 261.711 49.9415V87.6842H284.577V97.0175H249.947V46.0117Z" fill="white" fill-opacity="0.2"/>
<path d="M291.37 46.0117H303.797V46.9123C303.521 47.2398 303.328 47.5945 303.217 47.9766C303.162 48.3587 303.134 49.0136 303.134 49.9415V87.6842H326V97.0175H291.37V46.0117Z" fill="white" fill-opacity="0.2"/>
<path d="M0 51.9883V0.982458H14.1667C17.2596 0.982458 19.8555 1.25536 21.9543 1.80117C24.053 2.34698 25.848 3.16569 27.3393 4.25731C28.8305 5.29435 30.156 6.577 31.3159 8.10527C32.4757 9.63353 33.4699 11.3801 34.2984 13.345C35.182 15.2554 35.8448 17.3294 36.2867 19.5673C36.7837 21.8051 37.0323 24.2339 37.0323 26.8538C37.0323 30.729 36.5628 34.2222 35.6239 37.3333C34.685 40.3899 33.249 43.0098 31.3159 45.193C29.3828 47.3762 26.8974 49.0682 23.8597 50.269C20.8773 51.4152 17.3149 51.9883 13.1726 51.9883H0ZM11.5156 42.9006H13.0069C16.2655 42.9006 18.8061 42.191 20.6287 40.7719C22.5066 39.3528 23.8045 37.4425 24.5225 35.0409C25.2957 32.5848 25.6823 29.8558 25.6823 26.8538C25.6823 23.5244 25.351 20.6043 24.6882 18.0936C24.0806 15.5828 22.9208 13.6179 21.2086 12.1988C19.4965 10.7251 17.0387 9.98831 13.8353 9.98831H11.5156V42.9006Z" fill="white" fill-opacity="0.2"/>
<path d="M69.508 42.0819H48.3822L49.7906 34.0585H67.8511L69.508 42.0819ZM59.4008 20.7953L51.0333 51.9883H39.4348L55.8384 0.982458H62.8803L79.2839 51.9883H67.5197L59.4008 20.7953Z" fill="white" fill-opacity="0.2"/>
<path d="M83.0948 51.9883V0.982458H100.244C104.552 0.982458 108.087 1.61014 110.848 2.8655C113.665 4.12086 115.736 5.89474 117.062 8.18714C118.443 10.4795 119.133 13.154 119.133 16.2105C119.133 18.0663 118.746 19.922 117.973 21.7778C117.255 23.579 116.206 25.2437 114.825 26.7719C113.444 28.2456 111.815 29.4191 109.937 30.2924L120.541 51.9883H108.446L98.587 31.6842H95.0247V51.9883H83.0948ZM95.0247 22.269H100.824C102.757 22.269 104.276 21.7778 105.38 20.7953C106.54 19.7583 107.12 18.3665 107.12 16.6199C107.12 15.5283 106.872 14.5458 106.375 13.6725C105.878 12.7992 105.16 12.0897 104.221 11.5439C103.282 10.9981 102.149 10.7252 100.824 10.7252H95.0247V22.269Z" fill="white" fill-opacity="0.2"/>
<path d="M141.253 52.9708C137.773 52.9708 134.404 52.5068 131.146 51.579C127.942 50.5965 125.346 49.0955 123.358 47.076L128.992 37.8246L129.406 37.1696L130.234 37.6608C130.345 38.0429 130.483 38.4522 130.649 38.8889C130.869 39.271 131.339 39.7622 132.057 40.3626C133.382 41.2359 134.818 41.9727 136.365 42.5731C137.911 43.1735 139.513 43.501 141.17 43.5556C142.33 43.5556 143.352 43.4737 144.235 43.3099C145.174 43.1462 145.975 42.8733 146.638 42.4912C147.301 42.1092 147.798 41.5906 148.129 40.9357C148.516 40.2261 148.709 39.3801 148.709 38.3977C148.709 37.9064 148.626 37.4152 148.46 36.924C148.35 36.3782 148.129 35.8597 147.798 35.3684C147.466 34.8226 146.942 34.2768 146.224 33.731C145.561 33.1852 144.705 32.5848 143.655 31.9298C142.606 31.2749 141.28 30.5926 139.679 29.883C136.144 28.191 133.327 26.5809 131.228 25.0526C129.185 23.5244 127.694 21.8597 126.755 20.0585C125.871 18.2027 125.429 15.9922 125.429 13.4269C125.429 10.9162 126.175 8.65107 127.666 6.63158C129.213 4.61209 131.284 3.00195 133.88 1.80117C136.475 0.60039 139.32 0 142.413 0C144.788 0 146.942 0.245614 148.875 0.736842C150.863 1.22807 152.686 1.96491 154.343 2.94737C156.055 3.92983 157.629 5.18519 159.065 6.71345L152.023 14.2456L151.526 14.8187L150.78 14.1637C150.725 13.7271 150.642 13.3177 150.532 12.9357C150.421 12.499 150.062 11.9532 149.455 11.2982C148.571 10.5341 147.632 10.0429 146.638 9.82456C145.644 9.55166 144.484 9.41521 143.158 9.41521C142.219 9.41521 141.363 9.52437 140.59 9.74269C139.817 9.90644 139.154 10.1793 138.602 10.5614C138.049 10.8889 137.608 11.271 137.276 11.7076C137 12.1443 136.862 12.6082 136.862 13.0994C136.862 13.5906 136.917 14.0546 137.028 14.4912C137.138 14.8733 137.359 15.2827 137.69 15.7193C138.022 16.1559 138.519 16.6199 139.182 17.1111C139.9 17.6023 140.811 18.1754 141.916 18.8304C143.075 19.4308 144.511 20.1404 146.224 20.9591C148.875 22.269 151.112 23.5244 152.934 24.7252C154.757 25.9259 156.193 27.1813 157.242 28.4912C158.347 29.7466 159.12 31.1384 159.562 32.6667C160.059 34.1949 160.307 35.9415 160.307 37.9064C160.307 40.4717 159.645 42.9006 158.319 45.193C156.994 47.4854 154.923 49.3684 152.106 50.8421C149.289 52.2612 145.671 52.9708 141.253 52.9708Z" fill="white" fill-opacity="0.2"/>
<path d="M177.705 51.9883V10.5614H164.367V0.982458H202.973V10.5614H188.807V51.9883H177.705Z" fill="white" fill-opacity="0.2"/>
<path d="M208.11 51.9883V0.982458H242.988V10.152H219.625V20.8772H238.763V30.0468H219.625V42.8187H242.822V51.9883H208.11Z" fill="white" fill-opacity="0.2"/>
<path d="M249.947 0.982458H262.374V1.88304C262.098 2.21053 261.905 2.5653 261.794 2.94737C261.739 3.32944 261.711 3.98441 261.711 4.91228V42.655H284.577V51.9883H249.947V0.982458Z" fill="white" fill-opacity="0.2"/>
<path d="M291.37 0.982458H303.797V1.88304C303.521 2.21053 303.328 2.5653 303.217 2.94737C303.162 3.32944 303.134 3.98441 303.134 4.91228V42.655H326V51.9883H291.37V0.982458Z" fill="white" fill-opacity="0.2"/>
<path d="M0 76.5498V25.544H14.1667C17.2596 25.544 19.8555 25.8169 21.9543 26.3627C24.053 26.9085 25.848 27.7272 27.3393 28.8188C28.8305 29.8559 30.156 31.1385 31.3159 32.6668C32.4757 34.1951 33.4699 35.9416 34.2984 37.9066C35.182 39.8169 35.8448 41.891 36.2867 44.1288C36.7837 46.3666 37.0323 48.7954 37.0323 51.4153C37.0323 55.2906 36.5628 58.7838 35.6239 61.8949C34.685 64.9514 33.249 67.5713 31.3159 69.7545C29.3828 71.9378 26.8974 73.6298 23.8597 74.8305C20.8773 75.9767 17.3149 76.5498 13.1726 76.5498H0ZM11.5156 67.4621H13.0069C16.2655 67.4621 18.8061 66.7526 20.6287 65.3335C22.5066 63.9144 23.8045 62.004 24.5225 59.6025C25.2957 57.1463 25.6823 54.4173 25.6823 51.4153C25.6823 48.0859 25.351 45.1658 24.6882 42.6551C24.0806 40.1444 22.9208 38.1795 21.2086 36.7604C19.4965 35.2867 17.0387 34.5498 13.8353 34.5498H11.5156V67.4621Z" fill="white"/>
<path d="M69.508 66.6434H48.3822L49.7906 58.62H67.8511L69.508 66.6434ZM59.4008 45.3569L51.0333 76.5498H39.4348L55.8384 25.544H62.8803L79.2839 76.5498H67.5197L59.4008 45.3569Z" fill="white"/>
<path d="M83.0948 76.5498V25.544H100.244C104.552 25.544 108.087 26.1717 110.848 27.427C113.665 28.6824 115.736 30.4563 117.062 32.7487C118.443 35.0411 119.133 37.7155 119.133 40.7721C119.133 42.6278 118.746 44.4836 117.973 46.3393C117.255 48.1405 116.206 49.8052 114.825 51.3335C113.444 52.8071 111.815 53.9806 109.937 54.8539L120.541 76.5498H108.446L98.587 56.2457H95.0247V76.5498H83.0948ZM95.0247 46.8305H100.824C102.757 46.8305 104.276 46.3393 105.38 45.3569C106.54 44.3198 107.12 42.928 107.12 41.1814C107.12 40.0898 106.872 39.1073 106.375 38.234C105.878 37.3608 105.16 36.6512 104.221 36.1054C103.282 35.5596 102.149 35.2867 100.824 35.2867H95.0247V46.8305Z" fill="white"/>
<path d="M141.253 77.5323C137.773 77.5323 134.404 77.0684 131.146 76.1405C127.942 75.158 125.346 73.657 123.358 71.6376L128.992 62.3861L129.406 61.7311L130.234 62.2224C130.345 62.6044 130.483 63.0138 130.649 63.4504C130.869 63.8325 131.339 64.3237 132.057 64.9241C133.382 65.7974 134.818 66.5342 136.365 67.1346C137.911 67.735 139.513 68.0625 141.17 68.1171C142.33 68.1171 143.352 68.0352 144.235 67.8715C145.174 67.7077 145.975 67.4348 146.638 67.0528C147.301 66.6707 147.798 66.1522 148.129 65.4972C148.516 64.7877 148.709 63.9417 148.709 62.9592C148.709 62.468 148.626 61.9767 148.46 61.4855C148.35 60.9397 148.129 60.4212 147.798 59.93C147.466 59.3841 146.942 58.8383 146.224 58.2925C145.561 57.7467 144.705 57.1463 143.655 56.4914C142.606 55.8364 141.28 55.1541 139.679 54.4446C136.144 52.7526 133.327 51.1424 131.228 49.6142C129.185 48.0859 127.694 46.4212 126.755 44.62C125.871 42.7643 125.429 40.5537 125.429 37.9884C125.429 35.4777 126.175 33.2126 127.666 31.1931C129.213 29.1736 131.284 27.5635 133.88 26.3627C136.475 25.1619 139.32 24.5615 142.413 24.5615C144.788 24.5615 146.942 24.8071 148.875 25.2984C150.863 25.7896 152.686 26.5264 154.343 27.5089C156.055 28.4914 157.629 29.7467 159.065 31.275L152.023 38.8071L151.526 39.3802L150.78 38.7253C150.725 38.2886 150.642 37.8793 150.532 37.4972C150.421 37.0606 150.062 36.5148 149.455 35.8598C148.571 35.0956 147.632 34.6044 146.638 34.3861C145.644 34.1132 144.484 33.9767 143.158 33.9767C142.219 33.9767 141.363 34.0859 140.59 34.3042C139.817 34.468 139.154 34.7409 138.602 35.1229C138.049 35.4504 137.608 35.8325 137.276 36.2691C137 36.7058 136.862 37.1697 136.862 37.6609C136.862 38.1522 136.917 38.6161 137.028 39.0528C137.138 39.4348 137.359 39.8442 137.69 40.2808C138.022 40.7175 138.519 41.1814 139.182 41.6726C139.9 42.1639 140.811 42.737 141.916 43.3919C143.075 43.9923 144.511 44.7019 146.224 45.5206C148.875 46.8305 151.112 48.0859 152.934 49.2867C154.757 50.4875 156.193 51.7428 157.242 53.0528C158.347 54.3081 159.12 55.6999 159.562 57.2282C160.059 58.7565 160.307 60.5031 160.307 62.468C160.307 65.0333 159.645 67.4621 158.319 69.7545C156.994 72.0469 154.923 73.93 152.106 75.4036C149.289 76.8227 145.671 77.5323 141.253 77.5323Z" fill="white"/>
<path d="M177.705 76.5498V35.1229H164.367V25.544H202.973V35.1229H188.807V76.5498H177.705Z" fill="white"/>
<path d="M208.11 76.5498V25.544H242.988V34.7136H219.625V45.4387H238.763V54.6083H219.625V67.3802H242.822V76.5498H208.11Z" fill="white"/>
<path d="M249.947 25.544H262.374V26.4446C262.098 26.7721 261.905 27.1268 261.794 27.5089C261.739 27.891 261.711 28.5459 261.711 29.4738V67.2165H284.577V76.5498H249.947V25.544Z" fill="white"/>
<path d="M291.37 25.544H303.797V26.4446C303.521 26.7721 303.328 27.1268 303.217 27.5089C303.162 27.891 303.134 28.5459 303.134 29.4738V67.2165H326V76.5498H291.37V25.544Z" fill="white"/>
</svg>
