<svg width="147" height="146" viewBox="0 0 147 146" fill="none" xmlns="http://www.w3.org/2000/svg">
<path d="M73.4644 0C33.1684 0 0.464355 32.704 0.464355 73C0.464355 113.296 33.1684 146 73.4644 146C113.76 146 146.464 113.296 146.464 73C146.464 32.704 113.76 0 73.4644 0ZM107.336 49.64C106.241 61.174 101.496 89.206 99.0874 102.127C98.0654 107.602 96.0214 109.427 94.1234 109.646C89.8894 110.011 86.6774 106.872 82.5894 104.171C76.1654 99.937 72.5154 97.309 66.3104 93.221C59.0834 88.476 63.7554 85.848 67.9164 81.614C69.0114 80.519 87.6994 63.51 88.0644 61.977C88.1151 61.7448 88.1083 61.5038 88.0447 61.2748C87.9811 61.0458 87.8625 60.8358 87.6994 60.663C87.2614 60.298 86.6774 60.444 86.1664 60.517C85.5094 60.663 75.2894 67.452 55.3604 80.884C52.4404 82.855 49.8124 83.877 47.4764 83.804C44.8484 83.731 39.8844 82.344 36.1614 81.103C31.5624 79.643 27.9854 78.84 28.2774 76.285C28.4234 74.971 30.2484 73.657 33.6794 72.27C54.9954 62.999 69.1574 56.867 76.2384 53.947C96.5324 45.479 100.693 44.019 103.467 44.019C104.051 44.019 105.438 44.165 106.314 44.895C107.044 45.479 107.263 46.282 107.336 46.866C107.263 47.304 107.409 48.618 107.336 49.64Z" fill="#54A9EB"/>
<path d="M107.336 49.64C106.241 61.174 101.496 89.206 99.0874 102.127C98.0654 107.602 96.0214 109.427 94.1234 109.646C89.8894 110.011 86.6774 106.872 82.5894 104.171C76.1654 99.937 72.5154 97.309 66.3104 93.221C59.0834 88.476 63.7554 85.848 67.9164 81.614C69.0114 80.519 87.6994 63.51 88.0644 61.977C88.1151 61.7448 88.1083 61.5038 88.0447 61.2748C87.9811 61.0458 87.8625 60.8358 87.6994 60.663C87.2614 60.298 86.6774 60.444 86.1664 60.517C85.5094 60.663 75.2894 67.452 55.3604 80.884C52.4404 82.855 49.8124 83.877 47.4764 83.804C44.8484 83.731 39.8844 82.344 36.1614 81.103C31.5624 79.643 27.9854 78.84 28.2774 76.285C28.4234 74.971 30.2484 73.657 33.6794 72.27C54.9954 62.999 69.1574 56.867 76.2384 53.947C96.5324 45.479 100.693 44.019 103.467 44.019C104.051 44.019 105.438 44.165 106.314 44.895C107.044 45.479 107.263 46.282 107.336 46.866C107.263 47.304 107.409 48.618 107.336 49.64Z" fill="white"/>
</svg>
