<svg width="18" height="18" viewBox="0 0 18 18" fill="none" xmlns="http://www.w3.org/2000/svg">
<path fill-rule="evenodd" clip-rule="evenodd" d="M13.4769 4.40865C13.172 4.72747 13.1205 5.20541 13.2876 5.61359C13.5748 6.31461 13.7266 7.0712 13.7266 7.84344C13.7266 8.61602 13.5744 9.38105 13.2788 10.0948C12.9831 10.8086 12.5498 11.4572 12.0035 12.0035C11.4572 12.5498 10.8086 12.9831 10.0948 13.2788C9.38105 13.5744 8.61602 13.7266 7.84344 13.7266C7.07085 13.7266 6.30583 13.5744 5.59205 13.2788C4.87827 12.9831 4.22972 12.5498 3.68342 12.0035C3.13711 11.4572 2.70376 10.8086 2.40811 10.0948C2.11245 9.38105 1.96028 8.61602 1.96028 7.84344C1.96028 6.28313 2.58011 4.78672 3.68342 3.68342C4.78672 2.58011 6.28313 1.96028 7.84344 1.96028C8.63411 1.96028 9.40836 2.11944 10.1234 2.42002C10.5514 2.59998 11.0633 2.53268 11.3842 2.19705V2.19705C11.8132 1.74835 11.7418 1.00854 11.1799 0.744571C10.0704 0.22331 8.8445 -0.0351748 7.59863 0.00384885C5.60418 0.0663203 3.7085 0.886536 2.29752 2.29752C0.886536 3.7085 0.0663203 5.60418 0.00384885 7.59863C-0.0586226 9.59309 0.641347 11.5364 1.96126 13.0329C3.28117 14.5294 5.1218 15.4667 7.10843 15.6538C8.80091 15.8133 10.491 15.4181 11.9289 14.541C12.3592 14.2786 12.9218 14.3077 13.2782 14.664L16.3021 17.6879C16.3919 17.7843 16.5001 17.8615 16.6204 17.9151C16.7407 17.9687 16.8705 17.9975 17.0022 17.9998C17.1338 18.0022 17.2646 17.978 17.3867 17.9286C17.5088 17.8793 17.6197 17.8059 17.7128 17.7128C17.8059 17.6197 17.8793 17.5088 17.9286 17.3867C17.978 17.2646 18.0022 17.1338 17.9998 17.0022C17.9975 16.8705 17.9687 16.7407 17.9151 16.6204C17.8615 16.5001 17.7843 16.3919 17.6879 16.3021L14.664 13.2782C14.3077 12.9218 14.2786 12.3592 14.541 11.9289C15.4181 10.491 15.8133 8.80091 15.6538 7.10843C15.5702 6.22121 15.3371 5.3631 14.9713 4.56749C14.7041 3.98645 13.9443 3.91978 13.5023 4.38202L13.4769 4.40865Z" fill="white" fill-opacity="0.8"/>
</svg>
