<svg width="20" height="24" viewBox="0 0 20 24" fill="none" xmlns="http://www.w3.org/2000/svg">
<path d="M10.2957 9.7046C12.6994 9.7046 14.648 7.75601 14.648 5.3523C14.648 2.94859 12.6994 1 10.2957 1C7.89195 1 5.94336 2.94859 5.94336 5.3523C5.94336 7.75601 7.89195 9.7046 10.2957 9.7046Z" stroke="white" stroke-opacity="0.8" stroke-width="1.5"/>
<path d="M18.9979 18.4092C18.9993 18.2308 19 18.0494 19 17.8652C19 15.1613 15.1025 12.9688 10.2954 12.9688C5.48831 12.9688 1.59082 15.1613 1.59082 17.8652C1.59082 20.569 1.59082 22.7615 10.2954 22.7615C12.7229 22.7615 14.4736 22.5907 15.7358 22.286" stroke="white" stroke-opacity="0.8" stroke-width="1.5" stroke-linecap="round"/>
</svg>
