<svg width="23" height="21" viewBox="0 0 23 21" fill="none" xmlns="http://www.w3.org/2000/svg">
<path d="M8.61475 10.6747C8.61475 10.1882 8.61475 9.9449 8.6941 9.75278C8.80029 9.49746 9.00344 9.29469 9.25896 9.18896C9.45108 9.10857 9.69436 9.10857 10.1809 9.10857H13.3133C13.7998 9.10857 14.0431 9.10857 14.2352 9.18792C14.4905 9.29412 14.6933 9.49726 14.799 9.75278C14.8794 9.9449 14.8794 10.1882 14.8794 10.6747C14.8794 11.1613 14.8794 11.4046 14.8001 11.5967C14.6939 11.852 14.4907 12.0548 14.2352 12.1605C14.0431 12.2409 13.7998 12.2409 13.3133 12.2409H10.1809C9.69436 12.2409 9.45108 12.2409 9.25896 12.1616C9.00364 12.0554 8.80087 11.8522 8.69514 11.5967C8.61475 11.4046 8.61475 11.1613 8.61475 10.6747Z" stroke="white" stroke-opacity="0.8" stroke-width="1.5"/>
<path d="M20.6222 5.45411V11.7188C20.6222 15.6561 20.6222 17.6253 19.3985 18.848C18.1748 20.0706 16.2067 20.0717 12.2693 20.0717H11.2252M2.87232 5.45411V11.7188C2.87232 15.6561 2.87232 17.6253 4.09602 18.848C4.83108 19.5841 5.8376 19.8775 7.37872 19.9944M11.7473 1.27766H3.39438C2.40978 1.27766 1.918 1.27766 1.61208 1.58358C1.30615 1.88951 1.30615 2.38128 1.30615 3.36588C1.30615 4.35048 1.30615 4.84226 1.61208 5.14818C1.918 5.45411 2.40978 5.45411 3.39438 5.45411H20.1002C21.0848 5.45411 21.5766 5.45411 21.8825 5.14818C22.1884 4.84226 22.1884 4.35048 22.1884 3.36588C22.1884 2.38128 22.1884 1.88951 21.8825 1.58358C21.5766 1.27766 21.0848 1.27766 20.1002 1.27766H15.9237" stroke="white" stroke-opacity="0.8" stroke-width="1.5" stroke-linecap="round"/>
</svg>
