<svg width="22" height="22" viewBox="0 0 22 22" fill="none" xmlns="http://www.w3.org/2000/svg">
<path d="M10.8918 14.2712V1.41214M10.8918 1.41214L13.8593 4.8742M10.8918 1.41214L7.92432 4.8742" stroke="white" stroke-opacity="0.8" stroke-width="1.5" stroke-linecap="round" stroke-linejoin="round"/>
<path d="M6.93495 21.1953H14.8482C17.6456 21.1953 19.0452 21.1953 19.9137 20.3269C20.7832 19.4564 20.7832 18.0587 20.7832 15.2604V14.2712C20.7832 11.4739 20.7832 10.0752 19.9137 9.20574C19.154 8.44607 17.9888 8.35012 15.8374 8.33825M5.9458 8.33825C3.79437 8.35012 2.62915 8.44607 1.86947 9.20574C1 10.0752 1 11.4739 1 14.2712V15.2604C1 18.0587 1 19.4574 1.86947 20.3269C2.16622 20.6236 2.52429 20.8185 2.97832 20.9471" stroke="white" stroke-opacity="0.8" stroke-width="1.5" stroke-linecap="round"/>
</svg>
